<svg width="16" height="11" viewBox="0 0 16 11" fill="none" xmlns="http://www.w3.org/2000/svg">
<path d="M5.54946 9.87993L14.3515 1.07893C14.4488 0.981598 14.5635 0.929598 14.6955 0.922931C14.8275 0.916265 14.9485 0.968265 15.0585 1.07893C15.1685 1.1896 15.2238 1.3086 15.2245 1.43593C15.2251 1.56326 15.1701 1.68193 15.0595 1.79193L6.11546 10.7419C5.95346 10.9039 5.7648 10.9849 5.54946 10.9849C5.33413 10.9849 5.14546 10.9039 4.98346 10.7419L0.933462 6.69193C0.836128 6.5946 0.785462 6.47893 0.781462 6.34493C0.777462 6.21093 0.830128 6.08893 0.939462 5.97893C1.0488 5.86893 1.16779 5.81393 1.29646 5.81393C1.42513 5.81393 1.54413 5.86893 1.65346 5.97893L5.54946 9.87993Z" fill="white"/>
</svg>
