<svg width="24" height="24" viewBox="0 0 24 24" fill="none" xmlns="http://www.w3.org/2000/svg">
<path d="M20.8103 20.1045L16.91 16.2043C18.2802 14.6509 18.9921 12.6253 18.895 10.5563C18.7979 8.48726 17.8994 6.53723 16.3898 5.11905C14.8801 3.70086 12.8778 2.92586 10.8067 2.95812C8.73567 2.99038 6.75846 3.82737 5.29369 5.29188C3.82893 6.7564 2.99161 8.73347 2.959 10.8045C2.92639 12.8756 3.70105 14.878 5.11898 16.3879C6.5369 17.8978 8.48678 18.7967 10.5558 18.8941C12.6248 18.9916 14.6505 18.28 16.2041 16.91L20.1044 20.8104C20.1508 20.8568 20.2058 20.8937 20.2664 20.9189C20.327 20.9441 20.3919 20.9571 20.4575 20.9572C20.5231 20.9572 20.5881 20.9443 20.6488 20.9192C20.7094 20.8942 20.7645 20.8574 20.8109 20.811C20.8573 20.7646 20.8941 20.7095 20.9191 20.6489C20.9442 20.5882 20.9571 20.5232 20.9571 20.4576C20.957 20.392 20.944 20.3271 20.9188 20.2665C20.8936 20.2059 20.8567 20.1509 20.8103 20.1045ZM3.99816 10.9515C3.99815 9.57625 4.40594 8.23192 5.16996 7.08846C5.93398 5.945 7.01992 5.05378 8.29045 4.5275C9.56098 4.00122 10.959 3.86352 12.3078 4.1318C13.6566 4.40008 14.8956 5.06231 15.868 6.03473C16.8404 7.00715 17.5027 8.24609 17.771 9.59489C18.0393 10.9437 17.9016 12.3417 17.3753 13.6123C16.849 14.8828 15.9578 15.9688 14.8144 16.7328C13.6709 17.4968 12.3266 17.9046 10.9514 17.9046C9.10791 17.9025 7.34056 17.1693 6.03703 15.8658C4.7335 14.5623 4.00026 12.7949 3.99816 10.9515Z" fill="#6B879E"/>
<path d="M14.9336 13.8154C14.843 13.8152 14.7541 13.7906 14.6762 13.7442C14.5628 13.6759 14.481 13.5654 14.4491 13.4369C14.4171 13.3083 14.4374 13.1724 14.5056 13.0589C14.7917 12.5833 14.9812 12.0559 15.0634 11.507C15.1456 10.9581 15.1187 10.3984 14.9845 9.85991C14.8502 9.32138 14.6111 8.81459 14.2809 8.36852C13.9506 7.92244 13.5357 7.54582 13.0599 7.26019C12.947 7.19161 12.8659 7.08113 12.8343 6.95292C12.8027 6.8247 12.8232 6.68919 12.8912 6.57603C12.9593 6.46287 13.0694 6.38127 13.1975 6.34908C13.3255 6.31689 13.4611 6.33672 13.5746 6.40426C14.7621 7.11821 15.6174 8.27453 15.9525 9.61896C16.2876 10.9634 16.0751 12.3859 15.3616 13.5737C15.3172 13.6475 15.2545 13.7086 15.1795 13.7509C15.1045 13.7933 15.0197 13.8155 14.9336 13.8154Z" fill="#6B879E"/>
</svg>
